<?xml version="1.0" encoding="UTF-8"?>
<svg width="1426.7" height="318.61" version="1.1" viewBox="0 0 1426.7 318.61" xmlns="http://www.w3.org/2000/svg">
 <defs>
  <clipPath id="clipPath18">
   <path d="m0 238.96h1070v-238.96h-1070z"/>
  </clipPath>
 </defs>
 <g transform="matrix(1.3333 0 0 -1.3333 0 318.61)">
  <g clip-path="url(#clipPath18)">
   <g transform="matrix(1 0 0 -1 .9902 25.582)" fill="#374151" aria-label="Chart ox">
    <path d="m155.1-59.093q-2.0713 28.633-21.2 45.081-19.007 16.449-50.199 16.449-34.116 0-53.732-22.906-19.495-23.028-19.495-63.114v-10.844q0-25.587 9.0163-45.081t25.709-29.851q16.814-10.478 38.989-10.478 30.704 0 49.468 16.449t21.688 46.178h-36.552q-1.3403-17.18-9.6255-24.856-8.1634-7.7978-24.977-7.7978-18.276 0-27.414 13.159-9.0163 13.037-9.2599 40.573v13.403q0 28.755 8.6507 42.035 8.7726 13.281 27.536 13.281 16.936 0 25.221-7.676 8.407-7.7978 9.6255-24.003z"/>
    <path d="m211.08-117.46q14.012-16.814 35.212-16.814 42.888 0 43.497 49.833v84.436h-35.212v-83.461q0-11.331-4.8736-16.692-4.8736-5.4829-16.205-5.4829-15.474 0-22.419 11.94v93.696h-35.212v-187.15h35.212z"/>
    <path d="m392.85 0q-2.4368-4.7518-3.5334-11.819-12.793 14.255-33.263 14.255-19.373 0-32.166-11.209-12.672-11.209-12.672-28.267 0-20.957 15.474-32.166 15.596-11.209 44.959-11.331h16.205v-7.5542q0-9.1381-4.7518-14.621-4.63-5.4828-14.743-5.4828-8.8944 0-14.012 4.2644-4.9955 4.2644-4.9955 11.697h-35.212q0-11.453 7.0668-21.2 7.0668-9.7473 19.982-15.23 12.915-5.6047 28.998-5.6047 24.368 0 38.624 12.306 14.377 12.184 14.377 34.359v57.144q0.12184 18.764 5.2392 28.389v2.0713zm-29.12-24.49q7.7978 0 14.377-3.4116 6.5794-3.5334 9.7473-9.3818v-22.662h-13.159q-26.44 0-28.145 18.276l-0.12184 2.0713q0 6.5794 4.63 10.844 4.63 4.2644 12.672 4.2644z"/>
    <path d="m524.28-98.813q-7.1886-0.97473-12.671-0.97473-19.982 0-26.196 13.524v86.264h-35.212v-131.83h33.263l0.97473 15.718q10.6-18.154 29.364-18.154 5.8484 0 10.966 1.5839z"/>
    <path d="m589.48-164.24v32.41h22.541v25.83h-22.541v65.794q0 7.3105 2.8024 10.478t10.722 3.1679q5.8484 0 10.357-0.85289v26.683q-10.357 3.1679-21.322 3.1679-37.04 0-37.771-37.405v-71.033h-19.251v-25.83h19.251v-32.41z"/>
    <path d="m812.58-67.135q0-19.616 7.5542-34.968 7.5542-15.352 21.688-23.759 14.255-8.4071 33.019-8.4071 26.683 0 43.497 16.327 16.936 16.327 18.885 44.35l0.24368 9.0163q0 30.338-16.936 48.737-16.936 18.276-45.447 18.276t-45.569-18.276q-16.936-18.276-16.936-49.711zm35.212 2.5587q0 18.764 7.0668 28.755 7.0668 9.8691 20.226 9.8691 12.793 0 19.982-9.7473 7.1886-9.8691 7.1886-31.435 0-18.398-7.1886-28.511-7.1886-10.113-20.226-10.113-12.915 0-19.982 10.113-7.0668 9.991-7.0668 31.07z"/>
    <path d="m1006.8-92.478 22.175-39.355h37.649l-37.527 64.576 39.111 67.256h-37.771l-23.515-41.426-23.394 41.426h-37.893l39.111-67.256-37.405-64.576h37.771z"/>
   </g>
   <g transform="translate(812.91 96.626)">
    <path d="m0 0c-38.978 6.146-74.015-0.592-107.08-19.165-1.868 6.889 2.61 11.626 3.649 17.787-3.072-0.124-4.921-1.905-6.844-3.378-17.271-13.233-27.881-30.602-32.378-51.853-0.431-2.035 0.469-5.846-2.693-5.707-2.715 0.119-2.282 3.723-2.677 5.952-1.195 6.745-2.24 13.517-3.55 21.546-5.036-12.173-2.13-18.282-4.008-25.53-1.341-5.176-5.353-9.236-10.359-11.115-5.801-2.178-12.537-3.363-13.383-1.884 2.04 28.058-9.633 56.138 19.111 103.94 22.122 36.784 53.265 65.063 86.959 90.831 3.91 2.99 7.96 5.8 12.89 9.379-0.435-9.004-0.954-16.568-1.136-24.141-0.451-18.734 4.494-35.279 18.429-48.835 9.436-9.179 18-19.264 28.461-27.371 6.266-4.855 12.915-8.77 20.816-10.841 13.474-3.53 15.929-11.438 6.518-21.938-12.832-14.318-30.045-21.967-48.371-26.977-5.746-1.57-11.651-2.415-17.568-3.098-5.771-0.666-5.247-3.046-3.158-7.501 4.125-8.797 9.861-16.394 16.38-23.468 17.165-18.625-71.424-1.204-56.507 25.216 2.122 3.757 4.898 6.227 8.798 7.957 14.67 6.511 29.963 9.713 46.022 9.798 16.523 0.088 29.754 7.248 41.682 20.401" fill="#e5731f"/>
   </g>
   <g transform="translate(740.01 133.14)">
    <path d="m0 0c-1.239 0.123-1.646 1.729-0.601 2.407 4.966 3.225 14.678 8.949 18.57 7.16 1.792-0.824 2.808-5.417 3.307-8.603 0.248-1.588-1.071-2.975-2.67-2.816z" fill="#fff"/>
   </g>
   <g transform="translate(705.58 172.35)">
    <path d="m0 0c-3.921-8.159 8.258 2.859 38.525 4.129-4.326 8.095-1.999 33.667-1.999 33.667s-28.586-21.275-36.526-37.796" fill="#fff"/>
   </g>
  </g>
 </g>
</svg>
