<?xml version="1.0" encoding="UTF-8" standalone="no"?>
<svg
   width="340"
   height="340"
   version="1.1"
   viewBox="0 0 340.00001 340.00002"
   id="svg723"
   sodipodi:docname="ChartFoxLogoSmall.svg"
   inkscape:version="1.2.2 (b0a8486541, 2022-12-01)"
   inkscape:export-filename="chartfox.png"
   inkscape:export-xdpi="18.07"
   inkscape:export-ydpi="18.07"
   xmlns:inkscape="http://www.inkscape.org/namespaces/inkscape"
   xmlns:sodipodi="http://sodipodi.sourceforge.net/DTD/sodipodi-0.dtd"
   xmlns="http://www.w3.org/2000/svg"
   xmlns:svg="http://www.w3.org/2000/svg">
  <sodipodi:namedview
     id="namedview725"
     pagecolor="#ffffff"
     bordercolor="#666666"
     borderopacity="1.0"
     inkscape:showpageshadow="2"
     inkscape:pageopacity="0.0"
     inkscape:pagecheckerboard="0"
     inkscape:deskcolor="#d1d1d1"
     showgrid="false"
     showguides="true"
     inkscape:zoom="1.2826804"
     inkscape:cx="65.877675"
     inkscape:cy="175.80374"
     inkscape:current-layer="svg723">
    <sodipodi:guide
       position="-405.71463,35.73575"
       orientation="1,0"
       id="guide1056"
       inkscape:locked="false" />
  </sodipodi:namedview>
  <defs
     id="defs689">
    <clipPath
       clipPathUnits="userSpaceOnUse"
       id="clipPath949">
      <g
         id="g955">
        <g
           id="g953"
           style="stroke-width:1">
          <path
             d="M 0,0.004632 H 1426.631 V 318.61 H 0 Z"
             id="path951"
             style="stroke-width:1" />
        </g>
      </g>
    </clipPath>
    <clipPath
       clipPathUnits="userSpaceOnUse"
       id="clipPath970">
      <g
         id="g976">
        <g
           id="g974"
           style="stroke-width:1">
          <path
             d="M 0,0.004632 H 1426.631 V 318.61 H 0 Z"
             id="path972"
             style="stroke-width:1" />
        </g>
      </g>
    </clipPath>
    <clipPath
       clipPathUnits="userSpaceOnUse"
       id="clipPath978">
      <g
         id="g984">
        <g
           id="g982"
           style="stroke-width:1">
          <path
             d="M 0,0.004632 H 1426.631 V 318.61 H 0 Z"
             id="path980"
             style="stroke-width:1" />
        </g>
      </g>
    </clipPath>
    <clipPath
       clipPathUnits="userSpaceOnUse"
       id="clipPath986">
      <g
         id="g992">
        <g
           id="g990"
           style="stroke-width:1">
          <path
             d="M 0,0.004632 H 1426.631 V 318.61 H 0 Z"
             id="path988"
             style="stroke-width:1" />
        </g>
      </g>
    </clipPath>
    <clipPath
       clipPathUnits="userSpaceOnUse"
       id="clipPath994">
      <g
         id="g1000">
        <g
           id="g998"
           style="stroke-width:1">
          <path
             d="M 0,0.004632 H 1426.631 V 318.61 H 0 Z"
             id="path996"
             style="stroke-width:1" />
        </g>
      </g>
    </clipPath>
    <clipPath
       clipPathUnits="userSpaceOnUse"
       id="clipPath1002">
      <g
         id="g1008">
        <g
           id="g1006"
           style="stroke-width:1">
          <path
             d="M 0,0.004632 H 1426.631 V 318.61 H 0 Z"
             id="path1004"
             style="stroke-width:1" />
        </g>
      </g>
    </clipPath>
    <clipPath
       clipPathUnits="userSpaceOnUse"
       id="clipPath1010">
      <g
         id="g1016">
        <g
           id="g1014"
           style="stroke-width:1">
          <path
             d="M 0,0.004632 H 1426.631 V 318.61 H 0 Z"
             id="path1012"
             style="stroke-width:1" />
        </g>
      </g>
    </clipPath>
    <clipPath
       clipPathUnits="userSpaceOnUse"
       id="clipPath1018">
      <g
         id="g1024">
        <g
           id="g1022"
           style="stroke-width:1">
          <path
             d="M 0,0.004632 H 1426.631 V 318.61 H 0 Z"
             id="path1020"
             style="stroke-width:1" />
        </g>
      </g>
    </clipPath>
    <clipPath
       clipPathUnits="userSpaceOnUse"
       id="clipPath1033">
      <g
         id="g1039">
        <g
           id="g1037"
           style="stroke-width:1">
          <path
             d="M 0,0.004632 H 1426.631 V 318.61 H 0 Z"
             id="path1035"
             style="stroke-width:1" />
        </g>
      </g>
    </clipPath>
    <clipPath
       clipPathUnits="userSpaceOnUse"
       id="clipPath1048">
      <g
         id="g1054">
        <g
           id="g1052"
           style="stroke-width:1">
          <path
             d="M 0,0.004632 H 1426.631 V 318.61 H 0 Z"
             id="path1050"
             style="stroke-width:1" />
        </g>
      </g>
    </clipPath>
    <filter
       style="color-interpolation-filters:sRGB"
       inkscape:label="Blur"
       id="filter1167"
       x="-0.090739029"
       y="-0.087889634"
       width="1.1814781"
       height="1.1757793">
      <feGaussianBlur
         stdDeviation="10 10"
         result="blur"
         id="feGaussianBlur1165" />
    </filter>
  </defs>
  <path
     id="path1123"
     clip-path="url(#clipPath949)"
     style="fill:#000000;fill-opacity:1;stroke-width:1.3333;filter:url(#filter1167)"
     d="m 1003.3711,15.378906 c -6.57316,4.771876 -11.97236,8.519297 -17.18555,12.50586 -44.92418,34.356439 -86.44813,72.05946 -115.94336,121.103514 -38.32433,63.73435 -22.76053,101.17428 -25.48047,138.58399 1.12798,1.97194 10.10928,0.3922 17.84375,-2.51172 6.67449,-2.50527 12.0226,-7.91916 13.81055,-14.82032 2.50393,-9.66375 -1.37075,-17.80881 5.34375,-34.03906 1.74661,10.70506 3.14108,19.73346 4.73437,28.72656 0.52666,2.97193 -0.0516,7.77884 3.56836,7.9375 4.21589,0.18533 3.01714,-4.8961 3.5918,-7.60937 5.99584,-28.33393 20.14057,-51.49318 43.16797,-69.13672 2.56393,-1.96395 5.03105,-4.33858 9.12695,-4.50391 -1.3853,8.21446 -7.35584,14.53171 -4.86524,23.7168 44.08498,-24.76305 90.79902,-33.74666 142.76762,-25.55273 -15.9019,17.53227 -33.5414,27.07604 -55.5684,27.19336 -21.4115,0.11333 -41.80183,4.38334 -61.36132,13.06445 -5.19987,2.30661 -8.90121,5.59822 -11.73047,10.60742 -19.88881,35.22575 98.22589,58.45378 75.33979,33.62109 -8.6917,-9.43175 -16.3399,-19.56003 -21.8398,-31.28906 -2.7853,-5.93984 -3.4835,-9.11397 4.2109,-10.00195 7.8891,-0.91064 15.7627,-2.03758 23.4239,-4.13086 24.4339,-6.67982 47.3833,-16.87858 64.4922,-35.96875 12.5476,-13.99964 9.2754,-24.54345 -8.6895,-29.25 -10.5344,-2.76126 -19.3994,-7.97996 -27.7539,-14.45312 -13.9476,-10.80906 -25.3663,-24.2558 -37.9473,-36.49415 -18.5795,-18.074192 -25.1735,-40.133306 -24.5722,-65.111324 0.2426,-10.09707 0.9356,-20.182479 1.5156,-32.1875 z m -13.92188,23.042969 c 0,0 -3.10183,34.09562 2.66601,44.888672 -40.35495,1.693289 -56.59309,16.384243 -51.36523,5.505859 10.58639,-22.027427 48.69922,-50.394531 48.69922,-50.394531 z m 18.88278,89.466795 c 0.8637,0.0112 1.6326,0.15106 2.2813,0.44922 2.3893,1.09864 3.7448,7.22281 4.4101,11.4707 0.3307,2.11728 -1.4285,3.96786 -3.5605,3.75586 l -24.80665,-2.4707 c -1.65196,-0.164 -2.19603,-2.30502 -0.80273,-3.20898 5.7935,-3.76241 16.43308,-10.07448 22.47848,-9.9961 z"
     transform="translate(-794.10702,25.773348)" />
  <path
     id="path715"
     clip-path="url(#clipPath949)"
     style="fill:#e5731f;fill-opacity:1;stroke-width:1.3333"
     d="m 1003.3711,15.378906 c -6.57316,4.771876 -11.97236,8.519297 -17.18555,12.50586 -44.92418,34.356439 -86.44813,72.05946 -115.94336,121.103514 -38.32433,63.73435 -22.76053,101.17428 -25.48047,138.58399 1.12798,1.97194 10.10928,0.3922 17.84375,-2.51172 6.67449,-2.50527 12.0226,-7.91916 13.81055,-14.82032 2.50393,-9.66375 -1.37075,-17.80881 5.34375,-34.03906 1.74661,10.70506 3.14108,19.73346 4.73437,28.72656 0.52666,2.97193 -0.0516,7.77884 3.56836,7.9375 4.21589,0.18533 3.01714,-4.8961 3.5918,-7.60937 5.99584,-28.33393 20.14057,-51.49318 43.16797,-69.13672 2.56393,-1.96395 5.03105,-4.33858 9.12695,-4.50391 -1.3853,8.21446 -7.35584,14.53171 -4.86524,23.7168 44.08498,-24.76305 90.79902,-33.74666 142.76762,-25.55273 -15.9019,17.53227 -33.5414,27.07604 -55.5684,27.19336 -21.4115,0.11333 -41.80183,4.38334 -61.36132,13.06445 -5.19987,2.30661 -8.90121,5.59822 -11.73047,10.60742 -19.88881,35.22575 98.22589,58.45378 75.33979,33.62109 -8.6917,-9.43175 -16.3399,-19.56003 -21.8398,-31.28906 -2.7853,-5.93984 -3.4835,-9.11397 4.2109,-10.00195 7.8891,-0.91064 15.7627,-2.03758 23.4239,-4.13086 24.4339,-6.67982 47.3833,-16.87858 64.4922,-35.96875 12.5476,-13.99964 9.2754,-24.54345 -8.6895,-29.25 -10.5344,-2.76126 -19.3994,-7.97996 -27.7539,-14.45312 -13.9476,-10.80906 -25.3663,-24.2558 -37.9473,-36.49415 -18.5795,-18.074192 -25.1735,-40.133306 -24.5722,-65.111324 0.2426,-10.09707 0.9356,-20.182479 1.5156,-32.1875 z m -13.92188,23.042969 c 0,0 -3.10183,34.09562 2.66601,44.888672 -40.35495,1.693289 -56.59309,16.384243 -51.36523,5.505859 10.58639,-22.027427 48.69922,-50.394531 48.69922,-50.394531 z m 18.88278,89.466795 c 0.8637,0.0112 1.6326,0.15106 2.2813,0.44922 2.3893,1.09864 3.7448,7.22281 4.4101,11.4707 0.3307,2.11728 -1.4285,3.96786 -3.5605,3.75586 l -24.80665,-2.4707 c -1.65196,-0.164 -2.19603,-2.30502 -0.80273,-3.20898 5.7935,-3.76241 16.43308,-10.07448 22.47848,-9.9961 z"
     transform="translate(-806.10701,18.086221)" />
</svg>
